<svg width="245" height="48" viewBox="0 0 245 48" fill="none" xmlns="http://www.w3.org/2000/svg">
<path d="M226.559 38.5631V11H232.021V22.6151L231.365 21.7412C231.827 20.5518 232.567 19.6779 233.587 19.1196C234.63 18.5371 235.844 18.2458 237.228 18.2458C238.733 18.2458 240.043 18.5613 241.16 19.1925C242.301 19.8236 243.187 20.7096 243.818 21.8505C244.449 22.9671 244.765 24.2778 244.765 25.7828V38.5631H239.303V26.948C239.303 26.1712 239.145 25.5037 238.83 24.9454C238.538 24.3871 238.114 23.9502 237.555 23.6346C237.021 23.319 236.39 23.1612 235.662 23.1612C234.958 23.1612 234.327 23.319 233.769 23.6346C233.21 23.9502 232.773 24.3871 232.458 24.9454C232.166 25.5037 232.021 26.1712 232.021 26.948V38.5631H226.559Z" fill="white"/>
<path d="M220.81 38.7816C218.407 38.7816 216.538 38.1383 215.203 36.8518C213.892 35.541 213.237 33.7204 213.237 31.3902V23.4162H209.887V18.6827H210.069C211.088 18.6827 211.865 18.4279 212.399 17.9181C212.957 17.4084 213.237 16.6437 213.237 15.6242V14.1678H218.698V18.6827H223.359V23.4162H218.698V31.026C218.698 31.7057 218.82 32.2761 219.062 32.7374C219.305 33.1743 219.681 33.502 220.191 33.7205C220.701 33.9389 221.332 34.0482 222.084 34.0482C222.254 34.0482 222.448 34.036 222.667 34.0117C222.885 33.9875 223.116 33.9632 223.359 33.9389V38.5631C222.995 38.6117 222.582 38.6602 222.121 38.7087C221.66 38.7573 221.223 38.7816 220.81 38.7816Z" fill="white"/>
<path d="M196.574 39C194.972 39 193.6 38.6601 192.459 37.9805C191.343 37.2765 190.493 36.3056 189.91 35.0676C189.328 33.8296 189.037 32.3853 189.037 30.7347V18.6827H194.498V30.2978C194.498 31.0503 194.644 31.7178 194.935 32.3004C195.251 32.8587 195.688 33.2956 196.246 33.6112C196.804 33.9267 197.435 34.0845 198.139 34.0845C198.868 34.0845 199.499 33.9267 200.033 33.6112C200.591 33.2956 201.016 32.8587 201.307 32.3004C201.623 31.7178 201.78 31.0503 201.78 30.2978V18.6827H207.242V38.563H202.145V34.6307L202.436 35.5045C201.975 36.6939 201.222 37.5799 200.178 38.1625C199.159 38.7208 197.957 39 196.574 39Z" fill="white"/>
<path d="M161.523 38.5631L170.698 11.437H178.199L187.374 38.5631H181.221L179.4 33.0286H169.46L167.64 38.5631H161.523ZM171.026 28.1132H177.835L173.684 15.2965H175.213L171.026 28.1132Z" fill="white"/>
<path d="M133.337 38.5631V11.437H143.75C145.619 11.437 147.27 11.7646 148.702 12.42C150.159 13.0754 151.299 14.0464 152.125 15.3329C152.95 16.6194 153.363 18.2094 153.363 20.1028C153.363 21.9476 152.938 23.5132 152.088 24.7998C151.263 26.0863 150.122 27.0694 148.666 27.749C147.234 28.4044 145.595 28.7321 143.75 28.7321H138.98V38.5631H133.337ZM138.98 23.8167H143.787C144.588 23.8167 145.28 23.6589 145.862 23.3433C146.445 23.0278 146.894 22.5908 147.209 22.0325C147.549 21.4742 147.719 20.831 147.719 20.1028C147.719 19.3503 147.549 18.6949 147.209 18.1366C146.894 17.5783 146.445 17.1413 145.862 16.8258C145.28 16.5102 144.588 16.3524 143.787 16.3524H138.98V23.8167Z" fill="white"/>
<path d="M118.1 39C116.158 39 114.35 38.648 112.675 37.9441C111.024 37.2401 109.58 36.257 108.342 34.9948C107.104 33.7325 106.133 32.2518 105.429 30.5527C104.75 28.8535 104.41 26.9965 104.41 24.9818C104.41 22.9671 104.75 21.1101 105.429 19.4109C106.109 17.6875 107.068 16.2068 108.306 14.9688C109.544 13.7065 110.988 12.7356 112.639 12.0559C114.313 11.352 116.134 11 118.1 11C120.066 11 121.826 11.3277 123.38 11.9831C124.958 12.6385 126.293 13.5124 127.385 14.6047C128.477 15.697 129.254 16.9107 129.715 18.2458L124.727 20.6489C124.266 19.3381 123.453 18.2579 122.287 17.4083C121.147 16.5345 119.751 16.0975 118.1 16.0975C116.498 16.0975 115.09 16.4738 113.877 17.2263C112.663 17.9788 111.716 19.0225 111.036 20.3576C110.381 21.6684 110.053 23.2098 110.053 24.9818C110.053 26.7538 110.381 28.3073 111.036 29.6424C111.716 30.9775 112.663 32.0212 113.877 32.7737C115.09 33.5262 116.498 33.9025 118.1 33.9025C119.751 33.9025 121.147 33.4777 122.287 32.6281C123.453 31.7542 124.266 30.6619 124.727 29.3511L129.715 31.7542C129.254 33.0893 128.477 34.303 127.385 35.3953C126.293 36.4876 124.958 37.3615 123.38 38.0169C121.826 38.6723 120.066 39 118.1 39Z" fill="white"/>
<path d="M72 38.5631V11.437H77.4616L87.6203 28.9532H85.0715L94.9389 11.437H100.401V38.5631H94.7568V17.6632L97.0143 18.173L86.5644 35.6892H85.8362L75.7503 18.173L77.6437 17.6632V38.5631H72Z" fill="white"/>
<mask id="mask0_3632_698" style="mask-type:alpha" maskUnits="userSpaceOnUse" x="0" y="6" width="48" height="36">
<path fill-rule="evenodd" clip-rule="evenodd" d="M10.0411 6C11.868 6 13.5557 6.98728 14.4294 8.59167C17.2116 13.7005 19.4235 18.155 21.1836 22H27.7842C29.4741 17.965 31.4227 13.5323 33.6693 8.77956C34.4747 7.07568 36.1968 6 38.0814 6C40.7979 6 43 8.20211 43 10.9186V22H44C46.2091 22 48 23.7909 48 26C48 28.2091 46.2091 30 44 30H43V38C43 40.2091 41.2091 42 39 42C36.7909 42 35 40.2091 35 38V30H32.0146C30.97 32.711 29.9638 35.4609 29.0883 38.2446C28.3969 40.4427 26.394 42 24.0897 42C21.7028 42 19.6359 40.3373 18.9912 38.0391C18.3591 35.7854 17.442 32.8507 16.2744 30H13V38C13 40.2091 11.2091 42 9 42C6.79086 42 5 40.2091 5 38V30H4C1.79086 30 0 28.2091 0 26C0 23.7909 1.79086 22 4 22H5V11.0411C5 8.25698 7.25698 6 10.0411 6Z" fill="#32B7FF"/>
</mask>
<g mask="url(#mask0_3632_698)">
<path d="M35 6H43V42H35V6Z" fill="#0081FA"/>
<rect x="28" y="22" width="20" height="8" fill="black"/>
<rect x="28" y="22" width="20" height="8" fill="#B006D2"/>
<path d="M8.00554e-05 22H13V30H-1.68039e-05L8.00554e-05 22Z" fill="black"/>
<path d="M8.00554e-05 22H13V30H-1.68039e-05L8.00554e-05 22Z" fill="#0081FA"/>
<path d="M13 6H5V42H13V6Z" fill="#D53FEE"/>
<path d="M28 42H20C20 42 17.4022 30.0243 13 23.6981V6C27.3635 31.7238 28 42 28 42Z" fill="#B006D2"/>
<path d="M13 22H28V30H13V22Z" fill="black"/>
<path d="M13 22H28V30H13V22Z" fill="#0081FA"/>
<path d="M43.0004 6C31.3805 28.1678 28.0101 41.9601 28.0004 42L27.9447 41.5078C27.7735 40.2608 27.098 36.5971 24.558 29.9775C27.1097 23.4467 30.5026 15.2767 35.0004 6H43.0004Z" fill="#32B7FF"/>
</g>
</svg>
